<?xml version="1.0" encoding="UTF-8"?>
<svg xmlns="http://www.w3.org/2000/svg" viewBox="0 0 405.43 755.76">
  <defs>
    <style>
      .cls-1 {
        fill: #e2e2e2;
      }

      .cls-2 {
        fill: none;
        stroke: #000;
        stroke-miterlimit: 10;
        stroke-width: 2px;
      }
    </style>
  </defs>
  <g id="Layer_2" data-name="Layer 2">
    <path class="cls-1" d="M230.42,293.54c4.27,8.22,4.27,10.52,3.12,17.75-1.15,7.23-2.19,21.15,6.41,24.82-6.76-1.26-14.5-2.39-21.19-.15-5.23,1.75-10.02,6.48-12.99,10.93-2.36,3.54-2.94,7.37-3.05,11.31-.12-3.95-.7-7.77-3.06-11.31-2.96-4.45-7.75-9.18-12.98-10.93-6.7-2.24-14.44-1.11-21.2,.15,8.6-3.67,7.56-17.59,6.41-24.82s-1.15-9.53,3.13-17.75c4.27-8.22,9.2-18.08,14.79-29.09,5.47-10.79,3.16-29.25,3.06-29.98,2.9,8.51,4.61,15.9,9.85,17.07,5.23-1.17,6.95-8.54,9.84-17.04-.13,1.07-2.35,19.27,3.07,29.95,5.59,11.01,10.52,20.87,14.79,29.09Z"/>
    <path class="cls-1" d="M307.85,266.71l-.11,.09c-8.23-10.33-17.56-23.64-21.99-29.24-1.06-1.33-1.85-2.64-2.44-3.92-2.77-6.03-.86-11.35,.33-15.15,1.45-4.6,2.63-9.21,2.63-14.21s-1.26-6.47-1.26-6.47c.34,.11,.67,.21,1,.29,0,0,7.5,1.97,13.94,1.97,6.09,0,13.87,1.95,17.68,6.84,.19,.28,.38,.55,.59,.82,.02,.03,.03,.05,.05,.08,.44,.58,.91,1.15,1.42,1.73,0,0,8.02,6.45,11.44,14.61,0,0,.92,2.76,1.84,6.05s2.11,5.13,5,9.34c2.62,3.8,5.34,9.54,6.23,18.28,.1,.93,.17,1.9,.22,2.9,0,0-.44,9.3-8.25,13.27-2.98,1.51-5.87,2.29-8.32,2.68-4.2,.67-8.48-.3-12.04-2.65-4.25-2.81-6.9-5.93-7.96-7.31Z"/>
    <path class="cls-1" d="M315.81,274.02c3.56,2.35,7.84,3.32,12.04,2.65,2.45-.39,5.34-1.17,8.32-2.68,7.81-3.97,8.25-13.27,8.25-13.27-.05-1-.12-1.97-.22-2.9,0,0,1.93,1.19,9.69,8.68,7.76,7.5,14.21,18.82,14.21,18.82,7.76,11.05,16.04,34.59,19.2,46.04,3.16,11.44,7.76,20.65,7.76,20.65,.5,2.41-.52,4.48-1.87,6.07-2.46,2.9-6.23,4.3-10.03,4.09-3.11-.18-5.06-1.23-5.95-1.84-.38-.25-.56-.43-.56-.43-7.48-12.88-16.16-22.21-27.6-31.44-7.16-5.77-12.81-13.14-16.71-21.45-2.29-4.88-3.54-12.07-6.6-16.43-2.37-3.37-4.4-6.32-5.99-8.64-2.17-3.18-4.51-6.24-7.04-9.15-1.57-1.8-3.24-3.83-4.97-5.99l.11-.09c1.06,1.38,3.71,4.5,7.96,7.31Z"/>
    <path class="cls-1" d="M243.77,642.29c-2.51-3.19-4.8-8.67-5-19.91-.18-9.71,1.15-21.1,2.33-29.15h.01c.78-4.52,5.3-16.37,14.5-11.07,9.2,5.3,12.78-.47,19.64-7.17,5.93-5.79,9.97-.02,10.96,1.65,.07,.13,.13,.23,.17,.31,.04,.07,.06,.11,.06,.11,.25,.44,.5,.87,.77,1.3,0,0,7.02,15.35,4.68,49.09-.01,.11-.02,.23-.03,.35-.41,4.94-3.44,18.72-11.31,17.66-8.1-1.09-12.63-16.37-12.63-16.37-4.83-9.2-6.7,11.07-6.7,11.07-2.49,9.51-10.13,8.42-13.56,5.76-1.18-.91-2.56-1.95-3.88-3.62t-.01-.01Z"/>
    <path class="cls-1" d="M161.67,642.29h-.01c-1.32,1.68-2.7,2.72-3.88,3.63-3.43,2.66-11.07,3.75-13.57-5.76,0,0-1.87-20.27-6.7-11.07,0,0-4.52,15.28-12.63,16.37-7.69,1.04-10.77-12.16-11.28-17.34,0-.03-.01-.05-.01-.08-.02-.22-.03-.45-.05-.67-2.32-33.69,4.69-49.01,4.69-49.01,.26-.43,.52-.86,.77-1.3,0,0,.02-.04,.06-.11,.04-.08,.1-.18,.17-.31,.99-1.67,5.02-7.44,10.95-1.65,6.86,6.7,10.45,12.47,19.65,7.17,9.2-5.3,13.72,6.55,14.5,11.07h.01c1.18,8.05,2.5,19.44,2.32,29.15-.2,11.24-2.48,16.72-4.99,19.91Z"/>
    <path class="cls-1" d="M278.32,527.45c-1.22-3.17-7.41-17.23-20.27-17.74-14.68-.58-29.57,8.38-29.31,25.71h-.01c-1.1-6.85-2.65-13.64-3.73-20.51-1.98-12.49-5.59-24.33-8.39-34.19-1.36-4.84-3.1-11.03-4.79-17.66-1.5-12.56,3.81-19.31,5.78-23.42s2.47-8.22,1.97-14.46c-.4-5.13,3.18-6.27,4.47-6.52h.03c8.84,.07,17.69-1.93,17.69-1.93,21.36-7.3,22.02-24.91,20.62-33.95-1.41-9.04-4.19-21.86-8.46-33.36-2.21-5.96-5.88-9.32-8.91-11.17,4.07,1.53,15.79,6.78,22.76,18.4,.39,.64,.76,1.29,1.11,1.97,0,0,1.47,2.14,.98,6.08-.85,6.84,2.43,12.06,5.02,18.26,2.84,6.84,5.52,13.76,7.65,20.86,11.2,37.34,5.02,73.55-3.3,110.59-.55,2.43-1.14,4.86-1.78,7.21,0,0,.41,2.41,.87,5.83Z"/>
    <path class="cls-1" d="M245.01,338.25c3.03,1.85,6.7,5.21,8.91,11.17,4.27,11.5,7.05,24.32,8.46,33.36,1.4,9.04,.74,26.65-20.62,33.95,0,0-8.85,2-17.69,1.93h-.03c-5.15-.04-10.29-.77-13.67-3.01-2.33-1.54-3.97-3.61-5.12-5.85-1.68-3.26-2.32-6.88-2.53-9.71,.21-2.78,.02-4.79,0-4.97,.36-3.58,0-7.37,0-10.95v-19.62c0-2.14,.07-4.26,0-6.35,.11-3.94,.69-7.77,3.05-11.31,2.97-4.45,7.76-9.18,12.99-10.93,6.69-2.24,14.43-1.11,21.19,.15,0,0,2.25,.42,5.06,2.14Z"/>
    <path class="cls-1" d="M160.41,338.26c2.82-1.73,5.07-2.15,5.07-2.15,6.76-1.26,14.5-2.39,21.2-.15,5.23,1.75,10.02,6.48,12.98,10.93,2.36,3.54,2.94,7.36,3.06,11.31-.07,2.09,0,4.21,0,6.35v19.62c0,3.58-.36,7.37,0,10.95-.02,.18-.21,2.19,0,4.97-.22,2.82-.86,6.43-2.53,9.69-1.15,2.25-2.79,4.33-5.12,5.87-3.39,2.24-8.53,2.97-13.68,3.01h-.03c-8.84,.06-17.68-1.93-17.68-1.93-21.37-7.3-22.02-24.91-20.62-33.95s4.18-21.86,8.46-33.36c2.21-5.96,5.87-9.31,8.89-11.16Z"/>
    <path class="cls-1" d="M127.99,521.62c-.64-2.35-1.24-4.78-1.78-7.21-8.32-37.04-14.51-73.25-3.31-110.59,2.13-7.1,4.81-14.02,7.66-20.86,2.58-6.2,5.87-11.42,5.01-18.26-.49-3.94,.99-6.08,.99-6.08,.35-.67,.72-1.33,1.11-1.96,6.96-11.61,18.65-16.86,22.74-18.4-3.02,1.85-6.68,5.2-8.89,11.16-4.28,11.5-7.06,24.32-8.46,33.36s-.75,26.65,20.62,33.95c0,0,8.84,1.99,17.68,1.93h.03c1.3,.25,4.88,1.39,4.47,6.52-.49,6.24,0,10.35,1.98,14.46,1.97,4.11,7.28,10.86,5.77,23.42-1.69,6.63-3.42,12.82-4.79,17.66-2.79,9.86-6.41,21.7-8.38,34.19-1.09,6.87-2.63,13.66-3.73,20.51h-.01c.25-17.33-14.63-26.29-29.31-25.71-12.81,.5-19,14.46-20.27,17.7,.46-3.39,.87-5.79,.87-5.79Z"/>
    <path class="cls-1" d="M242.56,168.7c.48-.7,.95-1.35,1.4-1.94,0,0,6.4,8.06,20.61,17.66,0,0,12.03,10.7,20.44,13.39,0,0,1.26,1.47,1.26,6.47s-1.18,9.61-2.63,14.21c-1.19,3.8-3.1,9.12-.33,15.15,0,0-2.77,9.12-5.4,17.17-2.63,8.06-4.6,11.51-7.88,16.93-3.29,5.42-8.39,18.57-7.56,37.63,.82,19.07,5.58,51.11,5.58,51.11l-.28,.17c-6.97-11.62-18.69-16.87-22.76-18.4-2.81-1.72-5.06-2.14-5.06-2.14-8.6-3.67-7.56-17.59-6.41-24.82,1.15-7.23,1.15-9.53-3.12-17.75s-9.2-18.08-14.79-29.09c-5.42-10.68-3.2-28.88-3.07-29.95,.01-.03,.01-.05,.01-.05,.73-2.15,1.53-4.36,2.49-6.57,4.75-10.97,7.47-22.06,13.01-32.36,5.55-10.3,6.46-12.79,12-22.75,.85-1.53,1.69-2.88,2.49-4.07Z"/>
    <path class="cls-1" d="M192.87,234.47c.1,.73,2.41,19.19-3.06,29.98-5.59,11.01-10.52,20.87-14.79,29.09-4.28,8.22-4.28,10.52-3.13,17.75s2.19,21.15-6.41,24.82c0,0-2.25,.42-5.07,2.15-4.09,1.54-15.78,6.79-22.74,18.4l-.29-.18s4.77-32.04,5.59-51.11c.82-19.06-4.27-32.21-7.56-37.63s-5.26-8.87-7.89-16.93c-2.57-7.87-5.27-16.75-5.4-17.16,2.78-6.04,.87-11.36-.33-15.16-1.44-4.6-2.63-9.21-2.63-14.21s1.27-6.47,1.27-6.47c8.4-2.69,20.44-13.39,20.44-13.39,14.2-9.6,20.61-17.66,20.61-17.66,.44,.58,.9,1.22,1.36,1.9h.01c.81,1.21,1.65,2.57,2.51,4.11,5.55,9.96,6.46,12.45,12,22.75,5.55,10.3,8.26,21.39,13.02,32.36,.96,2.21,1.76,4.42,2.49,6.57v.02Z"/>
    <path class="cls-1" d="M242.56,168.7c-.8,1.19-1.64,2.54-2.49,4.07-5.54,9.96-6.45,12.45-12,22.75-5.54,10.3-8.26,21.39-13.01,32.36-.96,2.21-1.76,4.42-2.49,6.57,0,0,0,.02-.01,.05-2.89,8.5-4.61,15.87-9.84,17.04-5.24-1.17-6.95-8.56-9.85-17.07v-.02c-.73-2.15-1.53-4.36-2.49-6.57-4.76-10.97-7.47-22.06-13.02-32.36-5.54-10.3-6.45-12.79-12-22.75-.86-1.54-1.7-2.9-2.51-4.1,.3,.27,7.21,6.35,18.62,1.39,0,0,3.51-1.77,11.97-1.4,6.16,.26,9.28-.04,9.28-.04,0,0,3.12,.3,9.28,.04,8.46-.37,11.96,1.4,11.96,1.4,11.16,4.84,18.01-.84,18.6-1.36Z"/>
    <path class="cls-1" d="M313.24,196.39c1.46,4.98,2.64,7.93,4.39,10.52-3.81-4.89-11.59-6.84-17.68-6.84-6.44,0-13.94-1.97-13.94-1.97-.33-.08-.66-.18-1-.29-8.41-2.69-20.44-13.39-20.44-13.39-14.21-9.6-20.61-17.66-20.61-17.66,3.75-4.92,6.52-6.22,6.52-6.22,4.27-2.89,8.84-4.02,11.93-4.47,2.23-.32,3.69-.28,3.69-.28,0,0,15.41-3.35,30.54,8.22,15.13,11.58,14.63,25.67,16.6,32.38Z"/>
    <path class="cls-1" d="M262.37,155.79l.04,.28c-3.09,.45-7.66,1.58-11.93,4.47,0,0-2.77,1.3-6.52,6.22-.45,.59-.92,1.24-1.4,1.94-.59,.52-7.44,6.2-18.6,1.36,0,0-3.5-1.77-11.96-1.4-6.16,.26-9.28-.04-9.28-.04,0,0-3.12,.3-9.28,.04-8.46-.37-11.97,1.4-11.97,1.4-11.41,4.96-18.32-1.12-18.62-1.39h-.01c-.46-.69-.92-1.33-1.36-1.91-3.75-4.92-6.53-6.22-6.53-6.22-4.27-2.89-8.83-4.02-11.92-4.47l.04-.28s2.15-4.3,14.15-8.04c1.85-.58,3.48-1.17,4.92-1.76h.01c1.16-.49,2.2-.97,3.14-1.45,.01,0,.02,0,.03-.02,4.6-1.54,15.15-3.58,37.4-2.26,22.25-1.32,32.8,.72,37.4,2.26,0,.01,.02,.02,.03,.02,.94,.48,1.98,.96,3.14,1.44h0c1.44,.6,3.07,1.19,4.92,1.77,12,3.74,14.15,8.04,14.15,8.04Z"/>
    <path class="cls-1" d="M154.95,160.54s2.78,1.3,6.53,6.22c0,0-6.41,8.06-20.61,17.66,0,0-12.04,10.7-20.44,13.39-.34,.11-.67,.21-1,.29,0,0-7.5,1.97-13.95,1.97-6.08,0-13.86,1.95-17.67,6.84,1.75-2.59,2.92-5.54,4.39-10.52,1.97-6.71,1.47-20.8,16.59-32.38,15.13-11.57,30.54-8.22,30.54-8.22,0,0,1.46-.04,3.7,.28,3.09,.45,7.65,1.58,11.92,4.47Z"/>
    <path class="cls-1" d="M122.12,233.65c-.58,1.28-1.37,2.58-2.43,3.91-4.5,5.67-13.99,19.24-22.3,29.62l-.11-.09c-1.22,1.52-3.77,4.35-7.66,6.93-3.55,2.35-7.83,3.32-12.04,2.65-2.44-.39-5.34-1.17-8.32-2.68-7.8-3.97-8.24-13.27-8.24-13.27,.05-1,.12-1.97,.22-2.9,.88-8.74,3.61-14.48,6.22-18.28,2.9-4.21,4.08-6.05,5-9.34s1.84-6.05,1.84-6.05c3.43-8.16,11.45-14.61,11.45-14.61,.51-.58,.98-1.15,1.42-1.73,.02-.03,.03-.05,.05-.08,.21-.27,.4-.54,.59-.82,3.81-4.89,11.59-6.84,17.67-6.84,6.45,0,13.95-1.97,13.95-1.97,.33-.08,.66-.18,1-.29,0,0-1.27,1.47-1.27,6.47s1.19,9.61,2.63,14.21c1.2,3.8,3.11,9.12,.33,15.16Z"/>
    <path class="cls-1" d="M97.39,267.18c-1.61,2.02-3.18,3.92-4.66,5.61-2.54,2.91-4.88,5.97-7.05,9.15-1.58,2.32-3.61,5.27-5.98,8.64-3.07,4.36-4.32,11.55-6.61,16.43-3.89,8.31-9.55,15.68-16.7,21.45-11.44,9.23-20.12,18.56-27.6,31.44,0,0-.18,.18-.56,.43-.89,.61-2.84,1.66-5.96,1.84-3.79,.21-7.57-1.19-10.03-4.09-1.35-1.59-2.36-3.66-1.87-6.07,0,0,4.61-9.21,7.76-20.65,3.16-11.45,11.45-34.99,19.21-46.04,0,0,6.45-11.32,14.21-18.82,7.76-7.49,9.69-8.68,9.69-8.68-.1,.93-.17,1.9-.22,2.9,0,0,.44,9.3,8.24,13.27,2.98,1.51,5.88,2.29,8.32,2.68,4.21,.67,8.49-.3,12.04-2.65,3.89-2.58,6.44-5.41,7.66-6.93l.11,.09Z"/>
  </g>
  <g id="Layer_2_copy_3" data-name="Layer 2 copy 3">
    <path class="cls-2" d="M202.72,29.78s-10.62-2.65-17.97,3.24c0,0-5.43,4.48-11.12,7.22,0,0-4.64,2.21-5.06,9.07-.42,6.85-1.16,17.71-.42,28.47s.84,18.77,2.32,28.89,2,19.82,13.39,23.62c11.39,3.8,18.87,3.49,18.87,3.49"/>
    <path class="cls-2" d="M168.88,90.19s-4.12,.97-4.01,7.5,3.94,14.69,5.98,11.72"/>
    <path class="cls-2" d="M177.6,126.8s.9,8.4-2.5,10.66-5.89,6.56-17.88,10.3c-12,3.73-14.15,8.04-14.15,8.04"/>
    <path class="cls-2" d="M202.72,251.54c-6.56-1.47-7.59-12.68-12.34-23.65s-7.47-22.07-13.02-32.37-6.45-12.79-12-22.75-10.41-12.22-10.41-12.22c-7.36-4.98-15.62-4.75-15.62-4.75,0,0-15.41-3.35-30.54,8.22-15.13,11.58-14.63,25.67-16.6,32.38s-3.42,9.73-6.45,13.15c0,0-8.02,6.45-11.44,14.6,0,0-.92,2.76-1.84,6.05s-2.1,5.13-5,9.34-5.92,10.79-6.45,21.18c0,0,.44,9.31,8.24,13.27,2.98,1.51,5.88,2.3,8.32,2.68,4.21,.67,8.49-.3,12.04-2.65,5.66-3.75,8.49-8.04,8.49-8.04"/>
    <path class="cls-2" d="M161.48,166.76s-6.4,8.06-20.61,17.66c0,0-13.02,11.58-21.44,13.68,0,0-7.5,1.97-13.94,1.97s-14.8,2.19-18.32,7.74"/>
    <path class="cls-2" d="M120.43,197.81s-1.26,1.47-1.26,6.47,1.18,9.6,2.63,14.21,3.95,11.44-2.1,19.07c-5.37,6.77-17.87,24.81-26.96,35.23-2.53,2.9-4.87,5.96-7.04,9.15-1.58,2.32-3.62,5.27-5.98,8.64-3.07,4.36-4.31,11.55-6.6,16.43-3.9,8.31-9.55,15.68-16.71,21.45-11.44,9.23-20.12,18.56-27.6,31.44,0,0-2.08,2.01-6.52,2.27-3.79,.22-7.57-1.19-10.03-4.08-1.35-1.59-2.36-3.66-1.87-6.07,0,0,4.6-9.21,7.76-20.65s11.44-34.99,19.21-46.04c0,0,6.45-11.31,14.21-18.81s9.69-8.69,9.69-8.69"/>
    <path class="cls-2" d="M10.37,352.01s-2.74,3.05-2.61,7.69-.93,18.04-5.31,25.87c0,0-2.65,6.5-.8,13.53,0,0,1.99,5.97,2.65,10.22s.66,5.04,3.05,6.9c0,0,4.11,2.61,7.74,5.89,0,0,2.37,2.32,3.08-.86s-.55-5.45-2.17-7.61-4.99-4.99-4.89-7.87,1.71-6.2,2.87-9.83,4.99-5.95,9.33-7.46"/>
    <path class="cls-2" d="M23.33,386.82s-.25,5.75,1.56,10.44,5.5,5.14,7.46,3.43,1.71-4.18,.86-7.46-1.82-5.95-1.61-12.2,.45-7.01-1.66-10.89-2.71-6.07-1.71-9.79"/>
    <path class="cls-2" d="M19.41,390.19s.54,3.29-.37,8.03-1.87,7.71-.66,9.93,2.64,3.31,3.01,5.52c0,0,.48,4.74-3.84,2.43"/>
    <path class="cls-2" d="M122.12,233.65s2.77,9.12,5.4,17.17,4.6,11.5,7.89,16.93,8.38,18.57,7.56,37.63-5.59,51.11-5.59,51.11"/>
    <path class="cls-2" d="M161.87,337.75s-17.09,5.09-25.31,20.87c0,0-1.48,2.14-.99,6.08,.86,6.84-2.43,12.06-5.01,18.26-2.85,6.84-5.53,13.76-7.66,20.86-11.2,37.34-5.01,73.55,3.3,110.59,.68,3.01,1.43,6.04,2.25,8.92"/>
    <path class="cls-2" d="M180.93,418.61s5.42,.33,4.93,6.57,0,10.35,1.97,14.46,7.29,10.86,5.78,23.42"/>
    <path class="cls-2" d="M165.49,336.11s-9.7,1.81-13.97,13.31-7.05,24.32-8.46,33.36-.75,26.65,20.62,33.95c0,0,22.19,5,31.39-1.08s7.7-20.05,7.65-20.53c-.36-3.57,0-7.37,0-10.95,0-6.54,0-13.08,0-19.62,0-6.16,.55-12.23-3.06-17.66-2.97-4.46-7.75-9.19-12.98-10.94-6.69-2.24-14.43-1.11-21.19,.15Z"/>
    <path class="cls-2" d="M192.87,234.46s2.53,18.99-3.06,30-10.52,20.87-14.79,29.09-4.27,10.52-3.12,17.75,2.19,21.15-6.41,24.82"/>
    <path class="cls-2" d="M162.14,145.99s6.84-5.73,40.58-3.73"/>
    <path class="cls-2" d="M162.84,168.66s6.96,6.47,18.63,1.4c0,0,3.5-1.77,11.96-1.4,6.16,.27,9.28-.04,9.28-.04"/>
    <path class="cls-2" d="M127.99,521.63s-1.73,10.16-2.05,18.19,.96,24.41-7.71,38.55c0,0-8.67,18.95-3.53,61.03,0,0,3.48,33.04,4.89,47.53,1.4,14.5,.31,29.62-9.35,36.64l-3.74,4.37s-3.74,.78-7.17,2.65-10.76,3.43-6.55,9.98c0,0,1.25,.94,7.02,2.65s10.13,1.71,14.97,6.39,11.54,5.61,19.49,4.99,9.67-5.3,9.67-12.47c0-11.93-.73-23.88,.07-35.8,.74-11.04,3.63-21.49,6.5-32.12,1.34-4.94,2.67-9.92,4.5-14.7,3.27-8.57,5.14-14.34,9.35-22.92"/>
    <path class="cls-2" d="M119,577.07s4.33-8.77,11.19-2.07,10.45,12.47,19.64,7.17,13.72,6.55,14.5,11.07"/>
    <path class="cls-2" d="M113.54,627.37c.26,4.5,3.24,19.18,11.34,18.09s12.63-16.37,12.63-16.37c4.83-9.2,6.7,11.07,6.7,11.07,2.49,9.51,10.13,8.42,13.56,5.77s8.57-6.39,8.89-23.54-4.05-39.53-4.05-39.53c-1.71-15.37,.62-19.55,7.17-26.41,5.03-5.27,5.66-12.8,6.7-19.65,1.11-7.32,2.8-14.56,3.95-21.89,1.97-12.49,5.59-24.32,8.38-34.18s7.07-25.31,9.53-38.78,2.14-23.34,1.81-33.03"/>
    <path class="cls-2" d="M126.87,528.08s6.02-17.79,20.51-18.36,29.56,8.38,29.31,25.71"/>
    <path class="cls-2" d="M114.64,719.04s16.43-4.26,28.96,.99"/>
    <path class="cls-2" d="M202.72,29.78s10.62-2.65,17.97,3.24c0,0,5.43,4.48,11.12,7.22,0,0,4.64,2.21,5.06,9.07s1.16,17.71,.42,28.47-.84,18.77-2.32,28.89-2,19.82-13.39,23.62c-11.39,3.8-18.87,3.49-18.87,3.49"/>
    <path class="cls-2" d="M236.55,90.19s4.12,.97,4.01,7.5-3.94,14.69-5.98,11.72"/>
    <path class="cls-2" d="M227.84,126.8s-.9,8.4,2.5,10.66,5.89,6.56,17.88,10.3c12,3.73,14.15,8.04,14.15,8.04"/>
    <path class="cls-2" d="M202.72,251.54c6.56-1.47,7.59-12.68,12.34-23.65,4.75-10.98,7.47-22.07,13.02-32.37s6.45-12.79,12-22.75,10.41-12.22,10.41-12.22c7.36-4.98,15.62-4.75,15.62-4.75,0,0,15.41-3.35,30.54,8.22,15.13,11.58,14.63,25.67,16.6,32.38,1.97,6.71,3.42,9.73,6.45,13.15,0,0,8.02,6.45,11.44,14.6,0,0,.92,2.76,1.84,6.05s2.1,5.13,5,9.34c2.89,4.21,5.92,10.79,6.45,21.18,0,0-.44,9.31-8.24,13.27-2.98,1.51-5.88,2.3-8.32,2.68-4.21,.67-8.49-.3-12.04-2.65-5.66-3.75-8.49-8.04-8.49-8.04"/>
    <path class="cls-2" d="M243.96,166.76s6.4,8.06,20.61,17.66c0,0,13.02,11.58,21.44,13.68,0,0,7.5,1.97,13.94,1.97,6.45,0,14.8,2.19,18.32,7.74"/>
    <path class="cls-2" d="M285.01,197.81s1.26,1.47,1.26,6.47-1.18,9.6-2.63,14.21-3.95,11.44,2.1,19.07c5.37,6.77,17.87,24.81,26.96,35.23,2.53,2.9,4.87,5.96,7.04,9.15,1.58,2.32,3.62,5.27,5.98,8.64,3.07,4.36,4.31,11.55,6.6,16.43,3.9,8.31,9.55,15.68,16.71,21.45,11.44,9.23,20.12,18.56,27.6,31.44,0,0,2.08,2.01,6.52,2.27,3.79,.22,7.57-1.19,10.03-4.08,1.35-1.59,2.36-3.66,1.87-6.07,0,0-4.6-9.21-7.76-20.65s-11.44-34.99-19.21-46.04c0,0-6.45-11.31-14.21-18.81-7.76-7.5-9.69-8.69-9.69-8.69"/>
    <path class="cls-2" d="M395.06,352.01s2.74,3.05,2.61,7.69,.93,18.04,5.31,25.87c0,0,2.65,6.5,.8,13.53,0,0-1.99,5.97-2.65,10.22s-.66,5.04-3.05,6.9c0,0-4.11,2.61-7.74,5.89,0,0-2.37,2.32-3.08-.86s.55-5.45,2.17-7.61,4.99-4.99,4.89-7.87-1.71-6.2-2.87-9.83c-1.16-3.63-4.99-5.95-9.33-7.46"/>
    <path class="cls-2" d="M382.11,386.82s.25,5.75-1.56,10.44c-1.82,4.69-5.5,5.14-7.46,3.43s-1.71-4.18-.86-7.46,1.82-5.95,1.61-12.2c-.2-6.25-.45-7.01,1.66-10.89s2.71-6.07,1.71-9.79"/>
    <path class="cls-2" d="M386.02,390.19s-.54,3.29,.37,8.03,1.87,7.71,.66,9.93-2.64,3.31-3.01,5.52c0,0-.48,4.74,3.84,2.43"/>
    <path class="cls-2" d="M283.31,233.65s-2.77,9.12-5.4,17.17-4.6,11.5-7.89,16.93-8.38,18.57-7.56,37.63,5.59,51.11,5.59,51.11"/>
    <path class="cls-2" d="M243.57,337.75s17.09,5.09,25.31,20.87c0,0,1.48,2.14,.99,6.08-.86,6.84,2.43,12.06,5.01,18.26,2.85,6.84,5.53,13.76,7.66,20.86,11.2,37.34,5.01,73.55-3.3,110.59-.68,3.01-1.43,6.04-2.25,8.92"/>
    <path class="cls-2" d="M224.5,418.61s-5.42,.33-4.93,6.57c.49,6.24,0,10.35-1.97,14.46s-7.29,10.86-5.78,23.42"/>
    <path class="cls-2" d="M239.95,336.11s9.7,1.81,13.97,13.31,7.05,24.32,8.46,33.36,.75,26.65-20.62,33.95c0,0-22.19,5-31.39-1.08-9.05-5.98-7.7-20.05-7.65-20.53,.36-3.57,0-7.37,0-10.95v-19.62c0-6.16-.55-12.23,3.06-17.66,2.97-4.46,7.75-9.19,12.98-10.94,6.69-2.24,14.43-1.11,21.19,.15Z"/>
    <path class="cls-2" d="M212.57,234.46s-2.53,18.99,3.06,30,10.52,20.87,14.79,29.09c4.27,8.22,4.27,10.52,3.12,17.75-1.15,7.23-2.19,21.15,6.41,24.82"/>
    <path class="cls-2" d="M243.3,145.99s-6.84-5.73-40.58-3.73"/>
    <path class="cls-2" d="M242.6,168.66s-6.96,6.47-18.63,1.4c0,0-3.5-1.77-11.96-1.4-6.16,.27-9.28-.04-9.28-.04"/>
    <path class="cls-2" d="M277.45,521.63s1.73,10.16,2.05,18.19c.32,8.03-.96,24.41,7.71,38.55,0,0,8.67,18.95,3.53,61.03,0,0-3.48,33.04-4.89,47.53-1.4,14.5-.31,29.62,9.35,36.64,0,0,1.87,2.18,3.74,4.37,0,0,3.74,.78,7.17,2.65s10.76,3.43,6.55,9.98c0,0-1.25,.94-7.02,2.65s-10.13,1.71-14.97,6.39-11.54,5.61-19.49,4.99c-7.95-.62-9.67-5.3-9.67-12.47,0-11.93,.73-23.88-.07-35.8-.74-11.04-3.63-21.49-6.5-32.12-1.34-4.94-2.67-9.92-4.5-14.7-3.27-8.57-5.14-14.34-9.35-22.92"/>
    <path class="cls-2" d="M286.44,577.07s-4.33-8.77-11.19-2.07-10.45,12.47-19.64,7.17c-9.2-5.3-13.72,6.55-14.5,11.07"/>
    <path class="cls-2" d="M291.89,627.37c-.26,4.5-3.24,19.18-11.34,18.09-8.11-1.09-12.63-16.37-12.63-16.37-4.83-9.2-6.7,11.07-6.7,11.07-2.49,9.51-10.13,8.42-13.56,5.77s-8.57-6.39-8.89-23.54c-.31-17.15,4.05-39.53,4.05-39.53,1.71-15.37-.62-19.55-7.17-26.41-5.03-5.27-5.66-12.8-6.7-19.65-1.11-7.32-2.8-14.56-3.95-21.89-1.97-12.49-5.59-24.32-8.38-34.18-2.79-9.86-7.07-25.31-9.53-38.78-2.47-13.48-2.14-23.34-1.81-33.03"/>
    <path class="cls-2" d="M278.56,528.08s-6.02-17.79-20.51-18.36-29.56,8.38-29.31,25.71"/>
    <path class="cls-2" d="M290.79,719.04s-16.43-4.26-28.96,.99"/>
  </g>
</svg>