<?xml version="1.0" encoding="UTF-8"?>
<svg xmlns="http://www.w3.org/2000/svg" viewBox="0 0 405.42 729.65">
  <defs>
    <style>
      .cls-1 {
        fill: #e2e2e2;
      }

      .cls-2 {
        fill: none;
        stroke: #000;
        stroke-miterlimit: 10;
        stroke-width: 2px;
      }
    </style>
  </defs>
  <g id="Layer_2" data-name="Layer 2">
    <path class="cls-1" d="M372.57,327.69c-1.7-1.1-3.06-2.8-4.03-4.6,0,0-4.56-3.64-13.85-10.38-9.3-6.73-16.48-13.56-23.66-23.03,0,0-8.11-10.02-11.42-19.76,0,0-3.13-8.38-11.32-17.85-2.1-2.42-3.84-4.53-5.33-6.41,.52,.4,8.78,6.81,13.61,8.1,4,1.06,9.24,.51,13.07-1.31,8.1-3.83,7.64-12.57,7.2-20.26-.13-2.12-.48-4.36-.94-6.55,0,0,.14,.14,.4,.41,1.74,1.8,8.82,9.16,14.69,15.91,0,0,11.52,13.48,17.91,30.4s13.98,34.7,17.26,41.26c.67,1.34,1.22,2.55,1.69,3.67l-.1,.04s.86,5.71-5.58,9.88c-3.84,2.49-7.1,2.13-9.6,.48Z"/>
    <path class="cls-1" d="M336.84,232.19c.44,7.69,.9,16.43-7.2,20.26-3.83,1.82-9.07,2.37-13.07,1.31-4.83-1.29-13.09-7.7-13.61-8.1l-.02-.02c-4.34-5.48-6.66-9.08-9.94-13.14-4.41-5.47-9.6-12.16-13.93-19.9,.03-1.01,0-2.14-.08-3.36h.11c-.53-7.26-2.73-17.48,1.07-22.69,1.24-1.69,3-2.92,4.9-3.82,1.17-.55,2.39-.97,3.57-1.3,2.08-.57,4.22-.86,6.39-.91,1.65-.04,3.31,.06,4.95,.29,5.21,.72,10.35,2.15,15.01,4.44,5.33,2.61,10.03,6.34,13.54,11.4,6.26,9.05,7.33,19.9,7.77,29.4-.26-.27-.4-.41-.4-.41,.46,2.19,.81,4.43,.94,6.55Z"/>
    <path class="cls-1" d="M309.06,167.33c3.78,12.42,5.93,17.92,5.93,17.92-4.66-2.29-9.8-3.72-15.01-4.44-1.64-.23-3.3-.33-4.95-.29h0c-14.67-3.23-26.18-16.55-33.36-29.01,0,0-8.67-12.03-21.54-17.36l.07-.17c2.53-2.97,13.09-5.15,24.72-4.52,6.35,.33,13.03,1.51,18.9,3.85,16.6,6.61,21.46,21.6,25.24,34.02Z"/>
    <path class="cls-1" d="M284.93,182.44c-.51,.18-8.94,3.33-18.34,15.62,0,0-2.32,2.11-5.74,5.23-.11,.11-.23,.22-.34,.32-.32,.28-.67,.6-1.04,.95-4.31,3.9-12.85,10.85-29.14,6.97-2.81-1.1-5.67-2.09-8.56-2.97-13.7-6.66-17.93-20.13-19.06-25.11,.27-1.2,.36-1.91,.36-1.91v-38.89c-.1-.23-.22-.46-.36-.69,3.06-5.41,13.76-12.51,29.93-9.96,.51,.08,1.01,.17,1.51,.28,2.07,.43,4.07,1.08,5.98,1.87,12.87,5.33,21.54,17.36,21.54,17.36,7.18,12.46,18.69,25.78,33.36,29h0c-2.17,.06-4.31,.35-6.39,.92-1.18,.33-2.4,.75-3.57,1.3l-.14-.29Z"/>
    <path class="cls-1" d="M276.94,533.49c1.02,3.3,12.78,21.11,9.9,60.04,0,0-.12,2.54-.55,7.23-7.62-5.96-15.15-15.16-17.47-28.09-2.32-12.92-2.27-31.58-2.27-31.58,.72-.88,1.4-1.78,2.07-2.65,4.67-6.05,8.32-4.95,8.32-4.95Z"/>
    <path class="cls-1" d="M260.85,203.29c3.42-3.12,5.74-5.23,5.74-5.23,9.4-12.29,17.83-15.44,18.34-15.62l.14,.29c-1.9,.9-3.66,2.13-4.9,3.82-3.8,5.21-1.6,15.43-1.07,22.69h-.11c.08,1.22,.11,2.35,.08,3.36,0,0,.26,9.85-6.35,21.6-6.61,11.75-13.59,30.11-13.41,37.09,.16,5.95,3.11,28.98,5.01,42.92,0,0-.74,.25-2.02,.74,0,0-13.69,3.16-20.39-11.82-6.7-14.99-2.11-23.45-1.71-33.32,.41-9.87-3.4-27.85-5.16-35.79,0-.01,0-.02,0-.03-.02-1.12-.02-2.24-.01-3.36,0-.72,0-1.45,.18-2.15,.17-.62,.46-1.2,.74-1.78,0-.01,.01-.01,.01-.02,1.93-3.2,6.01-6,11.6-11.17,4.15-3.84,8.46-7.78,11.92-10.95,.36-.33,.7-.64,1.04-.95,.11-.1,.23-.21,.34-.32Z"/>
    <path class="cls-1" d="M222.38,501.65c-3.11-9.62-5.12-22.24-6.16-30.04,.51-14.77,5.4-12.39,14.81-29.15,9.42-16.76,12.24-58.19,13.56-67.04s5.84-34.08,5.84-34.08c2.44-14.12,14.15-25.21,14.15-25.21,.23,1.64,.43,3.11,.61,4.37,2.59,18.4,10.71,36.11,14.43,54.38,8.23,40.37,7.14,84.08-5.38,123.51l-.14-.04c-1.3,4.03-6.13,7.3-12.32,6.22-6.75-1.18-6.54,1.97-9.69,10.25-3.16,8.28-9.15,7.99-9.15,7.99-10.45-.2-16.83-12.43-16.83-12.43-1.38-2.3-2.62-5.33-3.73-8.73Z"/>
    <path class="cls-1" d="M264.92,129.46c-11.63-.63-22.19,1.55-24.72,4.52l-.07,.17c-1.91-.79-3.91-1.44-5.98-1.87v-.07c-6.72-4.33-7.18-8.35-7.04-16.99,.03-2.33,.05-5.7,.06-9.36,3.5,5.47,7.57,7.9,19.65,12.19,12.15,4.32,18.1,11.41,18.1,11.41Z"/>
    <path class="cls-1" d="M253.56,580.89c.43,10.78-4.07,18.89-13.06,24.8-.28-.56-.58-1.13-.88-1.69-3.18-5.93-5.42-12.29-6.1-19-.76-7.58,.6-15.15,.35-22.74-.31-9.23-.02-19.94-3.17-28.76,3.02,4.64,7.48,9.34,15.62,12.84,.73,.31,1.43,.58,2.11,.81,2.8,11.1,4.68,22.65,5.13,33.74Z"/>
    <path class="cls-1" d="M202.71,212.16c1.4-2.4,3.83-4.23,6.59-4.98,3.72-1,7.67-.06,11.35,1.04,.37,.11,.75,.22,1.12,.34,1.48,.73,3.07,1.38,4.78,1.92,1.3,.42,2.56,.76,3.78,1.05,.33,.12,.66,.25,.99,.38,1.41,.56,2.84,1.16,3.95,2.15,1.72,1.54,2.5,3.88,2.46,6.14-.04,2.25-.81,4.44-1.78,6.48,0,0-.01,0-.01,.02-1.23,2.03-1.58,4.23-.91,7.29,.06,2.4,.26,4.78,.9,7.08,0,0-2.31,19.91-1.94,33.64,.38,13.72-.69,49.27-13.81,65.03-12.69,15.23-13.92,16.4-17.46,16.78h-.02c-3.55-.38-4.78-1.55-17.47-16.78-13.12-15.76-14.18-51.31-13.81-65.03,.37-13.73-1.94-33.64-1.94-33.64,.63-2.28,.84-4.64,.89-7.02,.01-.01,.01-.02,.01-.03,.69-3.11,.32-5.33-.94-7.38-.96-2.03-1.72-4.2-1.75-6.44-.04-2.26,.73-4.6,2.45-6.14,1.12-.99,2.55-1.59,3.96-2.15,.33-.13,.65-.26,.98-.38,1.22-.28,2.48-.63,3.79-1.05,1.71-.54,3.3-1.19,4.78-1.92,.37-.12,.74-.23,1.12-.34,3.68-1.1,7.63-2.04,11.34-1.04,2.76,.75,5.19,2.58,6.6,4.98Z"/>
    <path class="cls-1" d="M202.71,141.96c-.14,.23-.26,.46-.36,.69v38.89s.09,.71,.36,1.91c-1.13,4.98-5.36,18.45-19.06,25.11-2.9,.88-5.76,1.87-8.57,2.97-17.73,4.21-26.27-4.39-30.17-7.92h-.01c-.17-.17-.33-.31-.48-.45-.03-.02-.07-.05-.1-.08-3.29-3.01-5.5-5.02-5.5-5.02-9.69-12.69-18.36-15.63-18.36-15.63l-.14,.29c-1.16-.54-2.37-.97-3.55-1.29-2.08-.57-4.22-.86-6.38-.91h0c14.67-3.23,26.17-16.55,33.35-29.01,0,0,8.68-12.03,21.54-17.36,1.91-.79,3.91-1.44,5.99-1.88,.5-.1,1-.19,1.5-.27,16.18-2.55,26.88,4.55,29.94,9.96Z"/>
    <path class="cls-1" d="M131.32,498.35l-.15,.05c-12.52-39.44-13.6-83.15-5.37-123.52,3.72-18.27,11.84-35.98,14.43-54.38,.18-1.26,.38-2.73,.61-4.36,.43,.41,11.75,11.35,14.15,25.2,0,0,4.52,25.23,5.84,34.08,1.31,8.85,4.14,50.28,13.55,67.04,9.42,16.76,14.31,14.38,14.82,29.15-1.04,7.8-3.06,20.41-6.16,30.02-1.11,3.41-2.35,6.44-3.73,8.75,0,0-6.38,12.23-16.83,12.43,0,0-5.99,.29-9.15-7.99s-2.94-11.43-9.69-10.25c-6.19,1.08-11.02-2.19-12.32-6.22Z"/>
    <path class="cls-1" d="M178.31,115.22c.13,8.64-.33,12.66-7.05,16.99v.06c-2.07,.44-4.07,1.09-5.98,1.88l-.07-.17c-2.53-2.97-13.08-5.15-24.71-4.52,0,0,5.94-7.09,18.1-11.41,12.06-4.29,16.14-6.71,19.63-12.17,.02,3.66,.04,7.01,.08,9.34Z"/>
    <path class="cls-1" d="M159.1,546.34c8.15-3.5,12.6-8.2,15.62-12.85-3.16,8.82-2.86,19.54-3.17,28.77-.26,7.59,1.11,15.16,.34,22.74-.68,6.71-2.91,13.07-6.09,19-.3,.56-.6,1.13-.89,1.69-8.98-5.91-13.49-14.02-13.05-24.8,.44-11.09,2.33-22.64,5.13-33.74,.68-.23,1.38-.5,2.11-.81Z"/>
    <path class="cls-1" d="M170.4,230.63c.01,1.14,.01,2.28-.03,3.42-1.77,7.95-5.56,25.9-5.16,35.76,.41,9.87,4.99,18.33-1.71,33.32-6.7,14.98-20.39,11.82-20.39,11.82-1.27-.49-2.01-.74-2.01-.74h0c1.9-13.94,4.86-36.97,5.01-42.92,.19-6.98-6.79-25.34-13.4-37.09s-6.35-21.6-6.35-21.6c-.04-1.01,0-2.14,.08-3.36h-.12c.54-7.26,2.74-17.48-1.06-22.69-1.25-1.7-3.02-2.94-4.93-3.83l.14-.29s8.67,2.94,18.36,15.63c0,0,2.21,2.01,5.5,5.02,.03,.03,.07,.06,.1,.08,.16,.16,.32,.3,.48,.45h.01c3.61,3.32,8.36,7.67,12.95,11.9,5.57,5.15,9.64,7.95,11.58,11.13l.03,.06c.28,.58,.58,1.16,.74,1.78,.18,.7,.19,1.43,.19,2.15Z"/>
    <path class="cls-1" d="M165.21,133.98l.07,.17c-12.86,5.33-21.54,17.36-21.54,17.36-7.18,12.46-18.68,25.78-33.35,29h0c-1.65-.03-3.32,.07-4.96,.3-5.21,.72-10.34,2.15-15,4.44,0,0,2.14-5.5,5.92-17.92,3.78-12.42,8.64-27.41,25.25-34.02,5.87-2.34,12.55-3.52,18.9-3.85,11.63-.63,22.18,1.55,24.71,4.52Z"/>
    <path class="cls-1" d="M138.87,541.1c0,.57,.01,18.85-2.27,31.57-2.32,12.93-9.86,22.13-17.48,28.09-.42-4.69-.55-7.23-.55-7.23-2.87-38.93,8.88-56.74,9.91-60.04,0,0,3.65-1.1,8.31,4.95,.67,.87,1.36,1.77,2.08,2.65h0Z"/>
    <path class="cls-1" d="M126.31,209.24h.12c-.08,1.22-.12,2.35-.08,3.36-4.33,7.74-9.52,14.43-13.94,19.9-3.28,4.06-5.6,7.66-9.94,13.14l-.02,.02c-.52,.4-8.78,6.81-13.6,8.1-4,1.06-9.24,.51-13.07-1.31-8.1-3.83-7.65-12.57-7.2-20.26,.12-2.12,.47-4.36,.93-6.55,0,0-.14,.14-.4,.41,.44-9.5,1.51-20.35,7.78-29.4,3.51-5.06,8.21-8.79,13.54-11.4,4.66-2.29,9.79-3.72,15-4.44,1.64-.23,3.31-.33,4.96-.29,2.16,.05,4.3,.34,6.38,.91,1.18,.32,2.39,.75,3.55,1.29,1.91,.89,3.68,2.13,4.93,3.83,3.8,5.21,1.6,15.43,1.06,22.69Z"/>
    <path class="cls-1" d="M69.11,226.05c.26-.27,.4-.41,.4-.41-.46,2.19-.81,4.43-.93,6.55-.45,7.69-.9,16.43,7.2,20.26,3.83,1.82,9.07,2.37,13.07,1.31,4.82-1.29,13.08-7.7,13.6-8.1-1.49,1.88-3.22,3.99-5.32,6.41-8.19,9.47-11.32,17.85-11.32,17.85-3.32,9.74-11.42,19.76-11.42,19.76-7.18,9.47-14.36,16.3-23.66,23.03-9.3,6.74-13.85,10.38-13.85,10.38-.97,1.8-2.33,3.5-4.03,4.6-2.5,1.65-5.76,2.01-9.6-.48-6.44-4.17-5.58-9.88-5.58-9.88l-.11-.04c.47-1.12,1.02-2.33,1.69-3.67,3.28-6.56,10.88-24.34,17.27-41.26,6.39-16.92,17.91-30.4,17.91-30.4,5.87-6.75,12.95-14.11,14.68-15.91Z"/>
  </g>
  <g id="Layer_2_copy" data-name="Layer 2 copy">
    <path class="cls-2" d="M69.52,225.64s-8.35,8.57-15.08,16.32c0,0-11.52,13.48-17.91,30.4s-13.98,34.7-17.27,41.26c-3.28,6.56-3.8,10.19-5.18,13.98s-6.22,14.85-8.63,19.68-3.8,14.68-3.8,18.13-2.07,11.57,1.21,20.72c0,0,1.21,4.32,3.8,3.8s3.11-3.28,2.42-5.87-1.73-9.84,.17-15.02,4.83-9.15,6.73-12.78,5.18-4.14,5.18-4.14"/>
    <path class="cls-2" d="M19.54,352.7s.29,5.27,.59,11.32c0,0,.29,4.69,4,5.47,0,0,4.4,.2,4.69-5.57s.98-12.89,1.47-16.12c0,0,.68-2.15,2.15-3.61s3.17-4.84,1.47-9.96c-1.86-5.57-.78-7.62-.78-7.62"/>
    <path class="cls-2" d="M15.98,356.26s1.8,5.61-.84,9.71c0,0-1.86,2.44-1.56,6.25s.09,9.75-.49,11.73-2.13,3.21-3.8,1.26"/>
    <path class="cls-2" d="M17.67,317.33s-.86,5.71,5.58,9.88,11.23,.34,13.63-4.12c0,0,4.56-3.64,13.85-10.38s16.48-13.57,23.66-23.04c0,0,8.1-10.02,11.42-19.76,0,0,3.13-8.38,11.32-17.85s10.86-14.11,15.28-19.58,9.61-12.16,13.94-19.9"/>
    <path class="cls-2" d="M128.48,533.48c-1.03,3.31-12.78,21.12-9.91,60.04,0,0,1.03,21.12,7.39,53.98,0,0,.62,10.83-.82,15.42s-1.64,5.88-1.44,10.47c.06,1.24-2.07,3.63-2.74,4.63-5.69,8.61-9.13,17.3-17.99,24.01,0,0-16,11.2-9.44,17.26,6.57,6.06,7.94,7.34,11.56,7.34,3.18,0,5.79,.23,8.87,1.13,2.43,.71,5.07,1.31,7.46,.45,2.05-.73,3.52-2.4,4.95-3.96,1.52-1.67,3.09-3.08,5-4.3s4.32-1.88,5.53-4.07c1.28-2.33,.99-5.29,2.36-7.57,1.73-2.87,5.23-3.53,7.88-5.22s4.65-4.43,4.25-7.85c-.82-6.98-1.73-13.04,.06-18.18,1.17-3.36,4.11-5.64,4.8-9.3,.83-4.41-1.02-9.26-1.41-13.67-.49-5.59-.84-11.14,.04-16.72,1.83-11.71,5.3-22.93,10.91-33.39,3.18-5.93,5.42-12.29,6.1-19,.77-7.58-.6-15.15-.34-22.74,.31-9.23,.02-19.96,3.17-28.77"/>
    <path class="cls-2" d="M131.44,500.52c.3,3.42,.64,10.8-1.12,17.17-2.39,8.63-.92,12.49-1.84,15.79"/>
    <path class="cls-2" d="M126.44,209.24c-.08,1.21-.12,2.34-.08,3.35,0,0-.26,9.85,6.35,21.6s13.59,30.11,13.4,37.09-4.22,37.46-5.88,49.21c-2.59,18.4-10.71,36.11-14.43,54.38-8.24,40.45-7.14,84.23,5.43,123.73,0,0,.1,.71,.21,1.92"/>
    <path class="cls-2" d="M69.09,226.65c.43-9.66,1.41-20.77,7.8-30s17.36-14.31,28.55-15.84c3.78-.52,7.68-.38,11.34,.62,3.1,.85,6.48,2.38,8.47,5.12,3.8,5.21,1.6,15.43,1.07,22.69"/>
    <path class="cls-2" d="M102.48,245.63s-8.64,6.8-13.62,8.12c-4,1.07-9.24,.51-13.07-1.31-8.1-3.84-7.64-12.57-7.2-20.26,.12-2.12,.47-4.36,.93-6.55"/>
    <path class="cls-2" d="M90.43,185.25s2.14-5.49,5.93-17.92,8.64-27.41,25.25-34.02,39.7-3.92,43.61,.68"/>
    <path class="cls-2" d="M110.39,180.51c14.67-3.22,26.18-16.54,33.36-29,0,0,12.15-16.85,29.03-19.51,16.88-2.66,27.79,5.17,30.3,10.64v38.9s-2.85,22.15-24.2,28.94c-21.35,6.79-30.72-4.1-34.55-7.4"/>
    <path class="cls-2" d="M140.5,129.45s5.94-7.09,18.1-11.41,16.2-6.75,19.71-12.29"/>
    <path class="cls-2" d="M178.25,83.86s-.07,22.71,.07,31.36-.33,12.66-7.05,17"/>
    <path class="cls-2" d="M128.48,533.48s3.65-1.1,8.31,4.96,9.94,13.22,22.31,7.9,16.22-13.4,19.47-19.83,5.27-13.22,4.46-24.97"/>
    <path class="cls-2" d="M198.24,389.98s10.48,36.32-8.18,74.43c0,0-3.28,33.53-10.75,45.97,0,0-6.38,12.23-16.83,12.43,0,0-5.99,.3-9.15-7.99s-2.94-11.44-9.69-10.25-11.88-2.81-12.58-7.32"/>
    <path class="cls-2" d="M140.84,316.13s11.71,11.09,14.16,25.21c0,0,4.52,25.23,5.84,34.08s4.14,50.28,13.56,67.03,14.31,14.38,14.81,29.15"/>
    <path class="cls-2" d="M141.1,314.21s27.04,9.04,34.03,26.32,12.54,50.75,27.94,50.6"/>
    <path class="cls-2" d="M120.46,182.42s8.67,2.94,18.37,15.63c0,0,9.87,8.99,19.04,17.45s14.28,10.58,12.52,18.51-5.57,25.91-5.17,35.79,4.99,18.33-1.71,33.32c-6.7,14.98-20.39,11.83-20.39,11.83"/>
    <path class="cls-2" d="M202.79,212.27c-1.4-2.46-3.86-4.34-6.67-5.09-3.71-1-7.67-.06-11.35,1.03-3.61,1.08-7.17,2.31-10.67,3.69-1.41,.56-2.84,1.16-3.95,2.16-1.72,1.54-2.5,3.88-2.46,6.14s.81,4.45,1.79,6.5c.28,.58,.58,1.16,.74,1.78,.18,.7,.19,1.43,.19,2.15,.01,3.5,.02,7.05-.92,10.43,0,0,2.31,19.92,1.94,33.64s.69,49.28,13.81,65.03c13.12,15.75,13.99,16.47,17.84,16.82"/>
    <path class="cls-2" d="M202.1,218.68v7.91s.39,3.89-4.42,3.53-17.3-.24-21.37,4.5"/>
    <path class="cls-2" d="M182.88,235.59s7.97-2.43,12.65-1.7,7.16,3.28,7.19,6.93"/>
    <path class="cls-2" d="M202.71,246.78v8.15s.15,4.01-8.58,4.86-15.18,.97-15.18,.97"/>
    <path class="cls-2" d="M183.51,265.02s6.2-1.82,11.26-1.34,8.05-.12,7.95,7.78"/>
    <path class="cls-2" d="M202.71,278.64v7.18s.27,3.28-4.28,3.53-19.48,0-19.48,0"/>
    <path class="cls-2" d="M182.88,293.11s19.56-1.34,19.84,4.74v4.74"/>
    <line class="cls-2" x1="202.71" y1="306.38" x2="202.71" y2="346.98"/>
    <path class="cls-2" d="M202.71,26.58h0s-7.01,1.11-12.85-1.39-10.57-3.23-12.52,.82c0,0-3.2,3.91-3.2,11s.7,9.6-.83,12.79"/>
    <path class="cls-2" d="M202.71,98.46c-6.57-.09-12.29-4.3-17.32-8.1-2.25-1.7-4.46-3.51-6.45-5.51-2.09-2.5-2.3-6.12-2.72-8.07s-2.92-2.92-2.92-2.92c-5.98-2.64-6.26-14.32-5.98-18.08s5.28-5.28,5.28-5.28"/>
    <path class="cls-2" d="M202.71,1.01h0c-4.32-.08-9.48,.46-9.48,.46-10.57,1-16.74,4.63-21.1,13.11s-4.66,20.91-2.12,26.84,2.08,9.07,2.08,9.07"/>
    <line class="cls-2" x1="202.71" y1="306.38" x2="202.71" y2="346.98"/>
    <path class="cls-2" d="M123.7,673.4s29.39-11.72,26.77,26.37"/>
    <path class="cls-2" d="M138.87,541.08s.05,18.66-2.27,31.59-9.85,22.12-17.47,28.09"/>
    <path class="cls-2" d="M156.99,547.15c-2.8,11.1-4.68,22.65-5.13,33.74-.43,10.78,4.07,18.89,13.05,24.8"/>
    <path class="cls-2" d="M335.91,225.64s8.35,8.57,15.08,16.32c0,0,11.52,13.48,17.91,30.4s13.98,34.7,17.27,41.26,3.8,10.19,5.18,13.98,6.22,14.85,8.63,19.68,3.8,14.68,3.8,18.13,2.07,11.57-1.21,20.72c0,0-1.21,4.32-3.8,3.8s-3.11-3.28-2.42-5.87,1.73-9.84-.17-15.02-4.83-9.15-6.73-12.78-5.18-4.14-5.18-4.14"/>
    <path class="cls-2" d="M385.89,352.7s-.29,5.27-.59,11.32c0,0-.29,4.69-4,5.47,0,0-4.4,.2-4.69-5.57s-.98-12.89-1.47-16.12c0,0-.68-2.15-2.15-3.61s-3.17-4.84-1.47-9.96c1.86-5.57,.78-7.62,.78-7.62"/>
    <path class="cls-2" d="M389.45,356.26s-1.8,5.61,.84,9.71c0,0,1.86,2.44,1.56,6.25s-.09,9.75,.49,11.73,2.13,3.21,3.8,1.26"/>
    <path class="cls-2" d="M387.75,317.33s.86,5.71-5.58,9.88-11.23,.34-13.63-4.12c0,0-4.56-3.64-13.85-10.38-9.3-6.74-16.48-13.57-23.66-23.04,0,0-8.1-10.02-11.42-19.76,0,0-3.13-8.38-11.32-17.85-8.19-9.47-10.86-14.11-15.28-19.58-4.42-5.46-9.61-12.16-13.94-19.9"/>
    <path class="cls-2" d="M276.94,533.48c1.03,3.31,12.78,21.12,9.91,60.04,0,0-1.03,21.12-7.39,53.98,0,0-.62,10.83,.82,15.42s1.64,5.88,1.44,10.47c-.06,1.24,2.07,3.63,2.74,4.63,5.69,8.61,9.13,17.3,17.99,24.01,0,0,16,11.2,9.44,17.26-6.57,6.06-7.94,7.34-11.56,7.34-3.18,0-5.79,.23-8.87,1.13-2.43,.71-5.07,1.31-7.46,.45-2.05-.73-3.52-2.4-4.95-3.96-1.52-1.67-3.09-3.08-5-4.3s-4.32-1.88-5.53-4.07c-1.28-2.33-.99-5.29-2.36-7.57-1.73-2.87-5.23-3.53-7.88-5.22s-4.65-4.43-4.25-7.85c.82-6.98,1.73-13.04-.06-18.18-1.17-3.36-4.11-5.64-4.8-9.3-.83-4.41,1.02-9.26,1.41-13.67,.49-5.59,.84-11.14-.04-16.72-1.83-11.71-5.3-22.93-10.91-33.39-3.18-5.93-5.42-12.29-6.1-19-.77-7.58,.6-15.15,.34-22.74-.31-9.23-.02-19.96-3.17-28.77"/>
    <path class="cls-2" d="M273.98,500.52c-.3,3.42-.64,10.8,1.12,17.17,2.39,8.63,.92,12.49,1.84,15.79"/>
    <path class="cls-2" d="M278.99,209.24c.08,1.21,.12,2.34,.08,3.35,0,0,.26,9.85-6.35,21.6-6.61,11.75-13.59,30.11-13.4,37.09,.18,6.98,4.22,37.46,5.88,49.21,2.59,18.4,10.71,36.11,14.43,54.38,8.24,40.45,7.14,84.23-5.43,123.73,0,0-.1,.71-.21,1.92"/>
    <path class="cls-2" d="M336.34,226.65c-.43-9.66-1.41-20.77-7.8-30s-17.36-14.31-28.55-15.84c-3.78-.52-7.68-.38-11.34,.62-3.1,.85-6.48,2.38-8.47,5.12-3.8,5.21-1.6,15.43-1.07,22.69"/>
    <path class="cls-2" d="M302.95,245.63s8.64,6.8,13.62,8.12c4,1.07,9.24,.51,13.07-1.31,8.1-3.84,7.64-12.57,7.2-20.26-.12-2.12-.47-4.36-.93-6.55"/>
    <path class="cls-2" d="M314.99,185.25s-2.14-5.49-5.93-17.92c-3.78-12.42-8.64-27.41-25.25-34.02-16.61-6.62-39.7-3.92-43.61,.68"/>
    <path class="cls-2" d="M295.03,180.51c-14.67-3.22-26.18-16.54-33.36-29,0,0-12.15-16.85-29.03-19.51-16.88-2.66-27.79,5.17-30.3,10.64v38.9s2.85,22.15,24.2,28.94c21.35,6.79,30.72-4.1,34.55-7.4"/>
    <path class="cls-2" d="M264.92,129.45s-5.94-7.09-18.1-11.41c-12.15-4.32-16.2-6.75-19.71-12.29"/>
    <path class="cls-2" d="M227.18,83.86s.07,22.71-.07,31.36c-.14,8.64,.33,12.66,7.05,17"/>
    <path class="cls-2" d="M276.94,533.48s-3.65-1.1-8.31,4.96-9.94,13.22-22.31,7.9-16.22-13.4-19.47-19.83-5.27-13.22-4.46-24.97"/>
    <path class="cls-2" d="M207.19,389.98s-10.48,36.32,8.18,74.43c0,0,3.28,33.53,10.75,45.97,0,0,6.38,12.23,16.83,12.43,0,0,5.99,.3,9.15-7.99,3.16-8.28,2.94-11.44,9.69-10.25s11.88-2.81,12.58-7.32"/>
    <path class="cls-2" d="M264.59,316.13s-11.71,11.09-14.16,25.21c0,0-4.52,25.23-5.84,34.08s-4.14,50.28-13.56,67.03c-9.41,16.76-14.31,14.38-14.81,29.15"/>
    <path class="cls-2" d="M264.32,314.21s-27.04,9.04-34.03,26.32-12.54,50.75-27.94,50.6"/>
    <path class="cls-2" d="M284.96,182.42s-8.67,2.94-18.37,15.63c0,0-9.87,8.99-19.04,17.45-9.17,8.46-14.28,10.58-12.52,18.51,1.76,7.93,5.57,25.91,5.17,35.79s-4.99,18.33,1.71,33.32,20.39,11.83,20.39,11.83"/>
    <path class="cls-2" d="M202.64,212.27c1.4-2.46,3.86-4.34,6.67-5.09,3.71-1,7.67-.06,11.35,1.03,3.61,1.08,7.17,2.31,10.67,3.69,1.41,.56,2.84,1.16,3.95,2.16,1.72,1.54,2.5,3.88,2.46,6.14s-.81,4.45-1.79,6.5c-.28,.58-.58,1.16-.74,1.78-.18,.7-.19,1.43-.19,2.15-.01,3.5-.02,7.05,.92,10.43,0,0-2.31,19.92-1.94,33.64,.37,13.72-.69,49.28-13.81,65.03-13.12,15.75-13.99,16.47-17.84,16.82"/>
    <path class="cls-2" d="M203.33,218.68v7.91s-.39,3.89,4.42,3.53,17.3-.24,21.37,4.5"/>
    <path class="cls-2" d="M222.55,235.59s-7.97-2.43-12.65-1.7-7.16,3.28-7.19,6.93"/>
    <path class="cls-2" d="M202.71,246.78v8.15s-.15,4.01,8.58,4.86,15.18,.97,15.18,.97"/>
    <path class="cls-2" d="M221.92,265.02s-6.2-1.82-11.26-1.34-8.05-.12-7.95,7.78"/>
    <path class="cls-2" d="M202.71,278.64v7.18s-.27,3.28,4.28,3.53,19.48,0,19.48,0"/>
    <path class="cls-2" d="M222.55,293.11s-19.56-1.34-19.84,4.74v4.74"/>
    <line class="cls-2" x1="202.71" y1="306.38" x2="202.71" y2="346.98"/>
    <path class="cls-2" d="M202.71,26.58h0s7.01,1.11,12.85-1.39,10.57-3.23,12.52,.82c0,0,3.2,3.91,3.2,11,0,7.09-.7,9.6,.83,12.79"/>
    <path class="cls-2" d="M202.71,98.46c6.57-.09,12.29-4.3,17.32-8.1,2.25-1.7,4.46-3.51,6.45-5.51,2.09-2.5,2.3-6.12,2.72-8.07s2.92-2.92,2.92-2.92c5.98-2.64,6.26-14.32,5.98-18.08s-5.28-5.28-5.28-5.28"/>
    <path class="cls-2" d="M202.71,1.01h0c4.32-.08,9.48,.46,9.48,.46,10.57,1,16.74,4.63,21.1,13.11s4.66,20.91,2.12,26.84-2.08,9.07-2.08,9.07"/>
    <line class="cls-2" x1="202.71" y1="306.38" x2="202.71" y2="346.98"/>
    <path class="cls-2" d="M281.72,673.4s-29.39-11.72-26.77,26.37"/>
    <path class="cls-2" d="M266.55,541.08s-.05,18.66,2.27,31.59,9.85,22.12,17.47,28.09"/>
    <path class="cls-2" d="M248.43,547.15c2.8,11.1,4.68,22.65,5.13,33.74,.43,10.78-4.07,18.89-13.05,24.8"/>
  </g>
</svg>